<svg width="20" height="20" viewBox="0 0 20 20" fill="none" xmlns="http://www.w3.org/2000/svg">
<path d="M2 16.25V16.75H2.5H18.25V17H2.08211L1.75 16.6679V0.5H2V16.25ZM6.25 14.25H6.75V13.75V5V4.5H6.25H5H4.5V5V13.75V14.25H5H6.25ZM16.75 2.5V2H16.25H15H14.5V2.5V13.75V14.25H15H16.25H16.75V13.75V2.5ZM11.25 14.25H11.75V13.75V7.5V7H11.25H10H9.5V7.5V13.75V14.25H10H11.25ZM4.58211 14.5L4.25 14.1679V4.58211L4.58211 4.25H6.66789L7 4.58211V14.1679L6.66789 14.5H4.58211ZM14.25 14.1679V2.08211L14.5821 1.75H16.6679L17 2.08211V14.1679L16.6679 14.5H14.5821L14.25 14.1679ZM9.25 14.1679V7.08211L9.58211 6.75H11.6679L12 7.08211V14.1679L11.6679 14.5H9.58211L9.25 14.1679Z" fill="#666666" stroke="black"/>
</svg>
