<svg width="20" height="20" viewBox="0 0 20 20" fill="none" xmlns="http://www.w3.org/2000/svg">
<path d="M5.44056 7.68983C5.48332 7.6896 5.52608 7.68938 5.57013 7.68915C5.61706 7.68911 5.664 7.68906 5.71235 7.68902C5.7865 7.68873 5.7865 7.68873 5.86214 7.68843C5.99792 7.68792 6.13369 7.68767 6.26947 7.68749C6.35449 7.68738 6.43951 7.68722 6.52454 7.68704C6.79109 7.68651 7.05764 7.68613 7.32419 7.68598C7.63082 7.68581 7.93743 7.68512 8.24405 7.68399C8.48162 7.68314 8.71919 7.68275 8.95676 7.6827C9.09834 7.68266 9.23991 7.68243 9.38149 7.68173C9.54003 7.68096 9.69856 7.68114 9.8571 7.68139C9.90316 7.68103 9.94923 7.68067 9.99669 7.6803C10.871 7.68462 11.6232 8.00349 12.2559 8.60107C12.9259 9.30228 13.1521 10.1229 13.1371 11.075C13.1083 11.9024 12.7114 12.632 12.1167 13.1958C11.2172 13.9618 10.226 14.0018 9.10674 13.999C8.95454 13.9988 8.80234 13.9994 8.65014 13.9999C8.19888 14.0013 7.74761 14.0015 7.29635 14.0014C6.94464 14.0014 6.59294 14.0016 6.24124 14.003C6.06098 14.0036 5.88075 14.0036 5.70049 14.003C5.58792 14.0027 5.47536 14.0032 5.36279 14.0038C5.2868 14.004 5.21082 14.0034 5.13484 14.0028C4.61294 14.007 4.12821 14.1457 3.73416 14.4981C3.33599 14.9076 3.18988 15.3638 3.1882 15.9184C3.19746 16.4283 3.41878 16.8664 3.78542 17.2203C4.18947 17.5457 4.66714 17.6688 5.17611 17.6663C5.21182 17.6665 5.24753 17.6666 5.28431 17.6668C5.40306 17.6672 5.5218 17.667 5.64054 17.6668C5.72603 17.667 5.81153 17.6672 5.89702 17.6675C6.08066 17.6679 6.2643 17.6681 6.44795 17.6682C6.73831 17.6682 7.02867 17.6689 7.31903 17.6698C8.04002 17.6717 8.761 17.6729 9.48199 17.6737C10.0428 17.6744 10.6036 17.6752 11.1644 17.677C11.4531 17.6778 11.7417 17.6781 12.0304 17.678C12.2099 17.6781 12.3893 17.6786 12.5687 17.6793C12.652 17.6795 12.7352 17.6796 12.8184 17.6794C12.932 17.6791 13.0456 17.6796 13.1591 17.6803C13.1921 17.68 13.2251 17.6798 13.259 17.6795C13.4516 17.6815 13.5828 17.7068 13.75 17.8125C13.9018 17.9727 13.9743 18.1137 13.999 18.3325C13.9808 18.5118 13.9325 18.6422 13.8281 18.7891C13.5993 18.9712 13.4181 18.9901 13.1345 18.9899C13.0814 18.99 13.0814 18.99 13.0273 18.9902C12.9082 18.9906 12.7891 18.9906 12.67 18.9907C12.5848 18.9908 12.4996 18.991 12.4144 18.9913C12.1824 18.9918 11.9504 18.992 11.7184 18.9922C11.5733 18.9923 11.4283 18.9925 11.2832 18.9926C10.8029 18.9932 10.3225 18.9936 9.84218 18.9937C9.81627 18.9937 9.79037 18.9937 9.76368 18.9938C9.72477 18.9938 9.72477 18.9938 9.68508 18.9938C9.29195 18.9939 8.89883 18.9945 8.5057 18.9954C8.04869 18.9964 7.59168 18.9969 7.13466 18.997C6.89296 18.997 6.65126 18.9973 6.40955 18.998C6.18175 18.9986 5.95395 18.9987 5.72615 18.9983C5.64295 18.9983 5.55975 18.9985 5.47655 18.9989C4.41782 19.0035 3.50495 18.7967 2.72082 18.036C2.04854 17.3246 1.84765 16.5112 1.86312 15.5627C1.8874 14.8724 2.19126 14.2177 2.65627 13.7109C2.68221 13.6814 2.70814 13.6519 2.73486 13.6215C3.24746 13.0701 3.98524 12.7313 4.73631 12.688C4.87876 12.685 5.02103 12.6844 5.16351 12.6847C5.21785 12.6845 5.27219 12.6843 5.32652 12.6841C5.44268 12.6837 5.55884 12.6834 5.675 12.6834C5.8591 12.6833 6.0432 12.6826 6.22731 12.6818C6.68446 12.6799 7.14161 12.6787 7.59877 12.6779C7.95448 12.6772 8.31019 12.6763 8.66591 12.6746C8.84849 12.6738 9.03106 12.6734 9.21365 12.6735C9.32771 12.6735 9.44177 12.6729 9.55583 12.6722C9.63298 12.6719 9.71014 12.6722 9.7873 12.6724C10.3506 12.6679 10.88 12.5315 11.3039 12.1411C11.699 11.6994 11.8331 11.2247 11.8119 10.6459C11.7973 10.423 11.7435 10.2373 11.6406 10.0391C11.6165 9.98944 11.6165 9.98944 11.5918 9.93881C11.3414 9.47283 10.9493 9.2134 10.4534 9.06075C10.2319 9.00657 10.0107 9.01265 9.78396 9.01346C9.73565 9.01332 9.68734 9.01318 9.63756 9.01303C9.53304 9.01276 9.42852 9.01263 9.32399 9.01272C9.15848 9.01283 8.99297 9.01227 8.82746 9.01159C8.35701 9.00976 7.88656 9.00881 7.4161 9.00856C7.15584 9.00841 6.89558 9.00771 6.63532 9.00641C6.47102 9.00562 6.30673 9.00552 6.14243 9.00595C6.01594 9.00608 5.88945 9.00519 5.76296 9.00446C5.69526 9.00494 5.69526 9.00494 5.62618 9.00543C5.37464 9.00285 5.16739 8.98233 4.96096 8.82812C4.7981 8.62351 4.74427 8.46394 4.76565 8.20312C4.83635 7.99717 4.93106 7.8537 5.11721 7.73437C5.236 7.69478 5.31626 7.69021 5.44056 7.68983Z" fill="#1F1F1F"/>
<path d="M15.8055 13.1104C15.8626 13.1104 15.8626 13.1104 15.9208 13.1105C16.2253 13.1157 16.476 13.16 16.7576 13.2812C16.8003 13.2982 16.8003 13.2982 16.8438 13.3154C17.3224 13.5269 17.6707 13.9184 17.9027 14.375C17.9159 14.401 17.9291 14.4269 17.9427 14.4537C18.1837 14.9502 18.2137 15.5495 18.0516 16.0767C17.7399 16.8834 17.2443 17.6007 16.7186 18.2812C16.6831 18.3294 16.6477 18.3776 16.6124 18.4259C16.2613 18.8989 16.2613 18.8989 15.9764 18.9844C15.7908 19.0109 15.6424 18.9857 15.477 18.8939C14.6058 18.2317 13.6973 16.7024 13.5154 15.625C13.4612 15.0439 13.6274 14.4594 13.9856 13.9995C14.3084 13.6243 14.6465 13.3635 15.117 13.2031C15.1582 13.1888 15.1995 13.1745 15.242 13.1598C15.4319 13.1153 15.6111 13.11 15.8055 13.1104ZM15.1951 14.6094C14.9946 14.7928 14.8381 14.9976 14.8045 15.2734C14.8085 15.5339 14.8784 15.7424 14.9925 15.9741C15.0078 16.0057 15.023 16.0373 15.0388 16.0699C15.2519 16.4974 15.5071 16.9379 15.8592 17.2656C16.5718 16.3438 16.5718 16.3438 16.8545 15.2605C16.8037 14.9781 16.6652 14.7514 16.4381 14.5773C16.0406 14.3197 15.5745 14.3148 15.1951 14.6094Z" fill="#1F1F1F"/>
<path d="M5.63671 1.50864C6.1224 1.90191 6.38858 2.47945 6.48434 3.08594C6.60396 4.28047 5.61794 5.48872 4.92184 6.36719C4.89324 6.4047 4.86464 6.44222 4.83517 6.48087C4.80818 6.51586 4.78119 6.55086 4.75338 6.58692C4.73017 6.61723 4.70696 6.64754 4.68304 6.67877C4.56798 6.80217 4.4687 6.86683 4.30065 6.89194C4.00907 6.89232 3.86039 6.86468 3.64682 6.65619C3.00285 5.97705 2.44641 5.11425 2.07028 4.25782C2.04968 4.21109 2.02909 4.16436 2.00787 4.11621C1.79603 3.56861 1.79824 2.98167 2.01016 2.4347C2.27546 1.861 2.69641 1.42048 3.28121 1.17188C4.10245 0.870118 4.92747 1.00892 5.63671 1.50864ZM3.32028 2.73438C3.15702 2.97444 3.11958 3.23106 3.16403 3.51563C3.21224 3.66884 3.28264 3.80449 3.35934 3.94532C3.37149 3.96833 3.38365 3.99134 3.39617 4.01505C3.61525 4.42918 3.8692 4.81384 4.14059 5.19532C4.30314 5.04446 4.42209 4.88396 4.54098 4.69727C4.55943 4.6685 4.57788 4.63973 4.59689 4.61009C4.72744 4.40347 4.84857 4.19281 4.96334 3.97705C4.97778 3.94995 4.99222 3.92285 5.0071 3.89492C5.16515 3.59054 5.23404 3.34921 5.15621 3.00782C5.03674 2.7104 4.8551 2.52547 4.57028 2.38282C4.07697 2.1957 3.65765 2.3491 3.32028 2.73438Z" fill="#1F1F1F"/>
</svg>
