<svg width="20" height="20" viewBox="0 0 20 20" fill="none" xmlns="http://www.w3.org/2000/svg">
<path d="M14.25 3.66667V2M6.75 3.66667V2M3.20833 6.16667H17.7917M3 7.87C3 6.1075 3 5.22583 3.36333 4.5525C3.69187 3.95192 4.20166 3.47042 4.82 3.17667C5.53333 2.83333 6.46667 2.83333 8.33333 2.83333H12.6667C14.5333 2.83333 15.4667 2.83333 16.18 3.17667C16.8075 3.47833 17.3167 3.96 17.6367 4.55167C18 5.22667 18 6.10833 18 7.87083V11.9642C18 13.7267 18 14.6083 17.6367 15.2817C17.3081 15.8822 16.7983 16.3637 16.18 16.6575C15.4667 17 14.5333 17 12.6667 17H8.33333C6.46667 17 5.53333 17 4.82 16.6567C4.20179 16.3631 3.69201 15.8819 3.36333 15.2817C3 14.6067 3 13.725 3 11.9625V7.87Z" stroke="black" stroke-width="1.5" stroke-linecap="round" stroke-linejoin="round"/>
</svg>
