<svg width="20" height="20" viewBox="0 0 20 20" fill="none" xmlns="http://www.w3.org/2000/svg">
<path d="M10.0007 11.6667C10.9211 11.6667 11.6673 10.9205 11.6673 10C11.6673 9.07957 10.9211 8.33337 10.0007 8.33337C9.08018 8.33337 8.33398 9.07957 8.33398 10C8.33398 10.9205 9.08018 11.6667 10.0007 11.6667Z" stroke="black" stroke-width="1.5"/>
<mask id="path-2-inside-1_388_4097" fill="white">
<path d="M4.49936 4.90001L4.81186 4.35834C4.68917 4.28757 4.54607 4.26056 4.40602 4.28176C4.26597 4.30296 4.13728 4.37109 4.04103 4.47501L4.49936 4.90001ZM2.83353 7.78668L2.23603 7.60168C2.19423 7.73705 2.19967 7.88261 2.25145 8.01449C2.30323 8.14637 2.39829 8.25674 2.52103 8.32751L2.83353 7.78668ZM2.83186 12.2125L2.51936 11.6708C2.39659 11.7418 2.30159 11.8523 2.24996 11.9844C2.19832 12.1164 2.19311 12.2621 2.23519 12.3975L2.83186 12.2125ZM4.49853 15.0992L4.04019 15.5242C4.13645 15.6281 4.26514 15.6962 4.40519 15.7174C4.54524 15.7386 4.68833 15.7116 4.81103 15.6408L4.49853 15.0992ZM8.33186 17.3117H7.70686C7.70686 17.6033 7.90936 17.8558 8.19353 17.9208L8.33186 17.3117ZM11.666 17.3133L11.8052 17.9233C11.9433 17.8918 12.0666 17.8142 12.1549 17.7034C12.2432 17.5926 12.2912 17.455 12.291 17.3133H11.666ZM15.5002 15.1L15.1877 15.6417C15.3104 15.7125 15.4535 15.7395 15.5935 15.7183C15.7336 15.6971 15.8623 15.6289 15.9585 15.525L15.5002 15.1ZM17.1652 12.2117L17.7627 12.3967C17.8045 12.2613 17.7991 12.1157 17.7473 11.9839C17.6955 11.852 17.6004 11.7416 17.4777 11.6708L17.1652 12.2117ZM17.1669 7.78584L17.4794 8.32751C17.6021 8.25658 17.6971 8.14601 17.7488 8.01397C17.8004 7.88192 17.8056 7.73624 17.7635 7.60084L17.1669 7.78584ZM15.5002 4.89834L15.9585 4.47418C15.8623 4.37026 15.7336 4.30212 15.5935 4.28093C15.4535 4.25973 15.3104 4.28673 15.1877 4.35751L15.5002 4.89834ZM11.6669 2.68751H12.2919C12.2918 2.54596 12.2437 2.40862 12.1555 2.29795C12.0672 2.18729 11.944 2.10986 11.806 2.07834L11.6669 2.68751ZM8.33353 2.68584L8.19436 2.07584C8.05623 2.10739 7.93291 2.18494 7.84464 2.29578C7.75636 2.40661 7.70837 2.54415 7.70853 2.68584H8.33353ZM3.43103 7.97168C3.73433 6.98577 4.25585 6.08087 4.95686 5.32418L4.04019 4.47418C3.21181 5.36832 2.59545 6.43756 2.23686 7.60251L3.43103 7.97168ZM4.04603 13.4375C3.78877 12.9924 3.58194 12.5201 3.42936 12.0292L2.23603 12.3983C2.4159 12.9784 2.65991 13.5366 2.96353 14.0625L4.04603 13.4375ZM4.95769 14.6758C4.60872 14.2982 4.30294 13.8829 4.04603 13.4375L2.96353 14.0625C3.26693 14.5885 3.62805 15.0782 4.04019 15.5242L4.95769 14.6758ZM11.5277 16.705C10.5222 16.9339 9.47798 16.9333 8.47269 16.7033L8.19436 17.9217C9.38278 18.1937 10.6172 18.1946 11.806 17.9242L11.5277 16.705ZM16.5694 12.0283C16.2661 13.0142 15.7445 13.9192 15.0435 14.6758L15.9602 15.5258C16.7886 14.6317 17.4049 13.5625 17.7635 12.3975L16.5694 12.0283ZM15.9544 6.56251C16.216 7.01973 16.4216 7.48918 16.571 7.97084L17.7644 7.60168C17.5845 7.02163 17.3405 6.46346 17.0369 5.93751L15.9544 6.56251ZM15.0419 5.32418C15.3835 5.69334 15.6902 6.10751 15.9535 6.56251L17.0369 5.93751C16.7332 5.41146 16.371 4.92009 15.9585 4.47418L15.0419 5.32418ZM8.47186 3.29501C9.4774 3.06616 10.5216 3.06672 11.5269 3.29668L11.806 2.07834C10.6176 1.80627 9.38233 1.80542 8.19353 2.07584L8.47186 3.29501ZM8.95769 4.22668V2.68501H7.70769V4.22668H8.95769ZM6.14603 5.12834L4.81186 4.35834L4.18686 5.44084L5.52019 6.21084L6.14603 5.12834ZM3.85436 10.9025L2.52019 11.6725L3.14519 12.755L4.47936 11.985L3.85436 10.9025ZM4.47936 8.01501L3.14603 7.24584L2.52103 8.32918L3.85436 9.09834L4.47936 8.01501ZM8.95853 17.3125V15.7733H7.70853V17.3125H8.95853ZM5.52103 13.7892L4.18686 14.5592L4.81186 15.6425L6.14519 14.8717L5.52103 13.7892ZM15.8135 14.5592L14.4794 13.7892L13.8544 14.8717L15.1877 15.6417L15.8135 14.5592ZM12.2919 17.3142V15.7733H11.0419V17.315L12.2919 17.3142ZM16.8552 7.24501L15.521 8.01501L16.146 9.09834L17.4794 8.32751L16.8552 7.24501ZM17.4785 11.6717L16.146 10.9017L15.521 11.985L16.8544 12.7542L17.4785 11.6717ZM12.2919 4.22668V2.68751H11.0419V4.22668H12.2919ZM15.1885 4.35834L13.8544 5.12834L14.4794 6.21168L15.8135 5.44084L15.1885 4.35834ZM11.0419 4.22668C11.0419 5.99084 12.9519 7.09418 14.4794 6.21168L13.8544 5.12834C13.696 5.21975 13.5165 5.26788 13.3336 5.2679C13.1508 5.26792 12.9712 5.21983 12.8129 5.12845C12.6545 5.03708 12.523 4.90565 12.4316 4.74735C12.3401 4.58906 12.2919 4.40949 12.2919 4.22668H11.0419ZM15.521 8.01501C13.9935 8.89751 13.9935 11.1025 15.521 11.985L16.146 10.9017C15.9877 10.8102 15.8562 10.6788 15.7648 10.5204C15.6734 10.3621 15.6252 10.1824 15.6252 9.99959C15.6252 9.81675 15.6734 9.63713 15.7648 9.47878C15.8562 9.32044 15.9877 9.18894 16.146 9.09751L15.521 8.01501ZM14.4794 13.7892C12.9519 12.9067 11.0419 14.0092 11.0419 15.7733H12.2919C12.2919 15.5905 12.3401 15.411 12.4316 15.2527C12.523 15.0944 12.6545 14.9629 12.8129 14.8716C12.9712 14.7802 13.1508 14.7321 13.3336 14.7321C13.5165 14.7321 13.696 14.7803 13.8544 14.8717L14.4794 13.7892ZM8.95853 15.7733C8.95853 14.0092 7.04853 12.9067 5.52103 13.7892L6.14519 14.8717C6.30351 14.7803 6.48394 14.7321 6.66675 14.7321C6.84956 14.7321 7.02916 14.7802 7.1875 14.8716C7.34584 14.9629 7.47735 15.0944 7.5688 15.2527C7.66026 15.411 7.70845 15.5905 7.70853 15.7733H8.95853ZM4.47936 11.985C6.00686 11.1025 6.00686 8.89751 4.47936 8.01501L3.85436 9.09834C4.0127 9.18977 4.14419 9.32127 4.2356 9.47962C4.32702 9.63796 4.37515 9.81758 4.37515 10.0004C4.37515 10.1833 4.32702 10.3629 4.2356 10.5212C4.14419 10.6796 4.0127 10.8111 3.85436 10.9025L4.47936 11.985ZM7.70853 4.22668C7.70845 4.40949 7.66026 4.58906 7.5688 4.74735C7.47735 4.90565 7.34584 5.03708 7.1875 5.12845C7.02916 5.21983 6.84956 5.26792 6.66675 5.2679C6.48394 5.26788 6.30435 5.21975 6.14603 5.12834L5.52103 6.21168C7.04853 7.09334 8.95853 5.99084 8.95853 4.22668H7.70853Z"/>
</mask>
<path d="M4.49936 4.90001L4.81186 4.35834C4.68917 4.28757 4.54607 4.26056 4.40602 4.28176C4.26597 4.30296 4.13728 4.37109 4.04103 4.47501L4.49936 4.90001ZM2.83353 7.78668L2.23603 7.60168C2.19423 7.73705 2.19967 7.88261 2.25145 8.01449C2.30323 8.14637 2.39829 8.25674 2.52103 8.32751L2.83353 7.78668ZM2.83186 12.2125L2.51936 11.6708C2.39659 11.7418 2.30159 11.8523 2.24996 11.9844C2.19832 12.1164 2.19311 12.2621 2.23519 12.3975L2.83186 12.2125ZM4.49853 15.0992L4.04019 15.5242C4.13645 15.6281 4.26514 15.6962 4.40519 15.7174C4.54524 15.7386 4.68833 15.7116 4.81103 15.6408L4.49853 15.0992ZM8.33186 17.3117H7.70686C7.70686 17.6033 7.90936 17.8558 8.19353 17.9208L8.33186 17.3117ZM11.666 17.3133L11.8052 17.9233C11.9433 17.8918 12.0666 17.8142 12.1549 17.7034C12.2432 17.5926 12.2912 17.455 12.291 17.3133H11.666ZM15.5002 15.1L15.1877 15.6417C15.3104 15.7125 15.4535 15.7395 15.5935 15.7183C15.7336 15.6971 15.8623 15.6289 15.9585 15.525L15.5002 15.1ZM17.1652 12.2117L17.7627 12.3967C17.8045 12.2613 17.7991 12.1157 17.7473 11.9839C17.6955 11.852 17.6004 11.7416 17.4777 11.6708L17.1652 12.2117ZM17.1669 7.78584L17.4794 8.32751C17.6021 8.25658 17.6971 8.14601 17.7488 8.01397C17.8004 7.88192 17.8056 7.73624 17.7635 7.60084L17.1669 7.78584ZM15.5002 4.89834L15.9585 4.47418C15.8623 4.37026 15.7336 4.30212 15.5935 4.28093C15.4535 4.25973 15.3104 4.28673 15.1877 4.35751L15.5002 4.89834ZM11.6669 2.68751H12.2919C12.2918 2.54596 12.2437 2.40862 12.1555 2.29795C12.0672 2.18729 11.944 2.10986 11.806 2.07834L11.6669 2.68751ZM8.33353 2.68584L8.19436 2.07584C8.05623 2.10739 7.93291 2.18494 7.84464 2.29578C7.75636 2.40661 7.70837 2.54415 7.70853 2.68584H8.33353ZM3.43103 7.97168C3.73433 6.98577 4.25585 6.08087 4.95686 5.32418L4.04019 4.47418C3.21181 5.36832 2.59545 6.43756 2.23686 7.60251L3.43103 7.97168ZM4.04603 13.4375C3.78877 12.9924 3.58194 12.5201 3.42936 12.0292L2.23603 12.3983C2.4159 12.9784 2.65991 13.5366 2.96353 14.0625L4.04603 13.4375ZM4.95769 14.6758C4.60872 14.2982 4.30294 13.8829 4.04603 13.4375L2.96353 14.0625C3.26693 14.5885 3.62805 15.0782 4.04019 15.5242L4.95769 14.6758ZM11.5277 16.705C10.5222 16.9339 9.47798 16.9333 8.47269 16.7033L8.19436 17.9217C9.38278 18.1937 10.6172 18.1946 11.806 17.9242L11.5277 16.705ZM16.5694 12.0283C16.2661 13.0142 15.7445 13.9192 15.0435 14.6758L15.9602 15.5258C16.7886 14.6317 17.4049 13.5625 17.7635 12.3975L16.5694 12.0283ZM15.9544 6.56251C16.216 7.01973 16.4216 7.48918 16.571 7.97084L17.7644 7.60168C17.5845 7.02163 17.3405 6.46346 17.0369 5.93751L15.9544 6.56251ZM15.0419 5.32418C15.3835 5.69334 15.6902 6.10751 15.9535 6.56251L17.0369 5.93751C16.7332 5.41146 16.371 4.92009 15.9585 4.47418L15.0419 5.32418ZM8.47186 3.29501C9.4774 3.06616 10.5216 3.06672 11.5269 3.29668L11.806 2.07834C10.6176 1.80627 9.38233 1.80542 8.19353 2.07584L8.47186 3.29501ZM8.95769 4.22668V2.68501H7.70769V4.22668H8.95769ZM6.14603 5.12834L4.81186 4.35834L4.18686 5.44084L5.52019 6.21084L6.14603 5.12834ZM3.85436 10.9025L2.52019 11.6725L3.14519 12.755L4.47936 11.985L3.85436 10.9025ZM4.47936 8.01501L3.14603 7.24584L2.52103 8.32918L3.85436 9.09834L4.47936 8.01501ZM8.95853 17.3125V15.7733H7.70853V17.3125H8.95853ZM5.52103 13.7892L4.18686 14.5592L4.81186 15.6425L6.14519 14.8717L5.52103 13.7892ZM15.8135 14.5592L14.4794 13.7892L13.8544 14.8717L15.1877 15.6417L15.8135 14.5592ZM12.2919 17.3142V15.7733H11.0419V17.315L12.2919 17.3142ZM16.8552 7.24501L15.521 8.01501L16.146 9.09834L17.4794 8.32751L16.8552 7.24501ZM17.4785 11.6717L16.146 10.9017L15.521 11.985L16.8544 12.7542L17.4785 11.6717ZM12.2919 4.22668V2.68751H11.0419V4.22668H12.2919ZM15.1885 4.35834L13.8544 5.12834L14.4794 6.21168L15.8135 5.44084L15.1885 4.35834ZM11.0419 4.22668C11.0419 5.99084 12.9519 7.09418 14.4794 6.21168L13.8544 5.12834C13.696 5.21975 13.5165 5.26788 13.3336 5.2679C13.1508 5.26792 12.9712 5.21983 12.8129 5.12845C12.6545 5.03708 12.523 4.90565 12.4316 4.74735C12.3401 4.58906 12.2919 4.40949 12.2919 4.22668H11.0419ZM15.521 8.01501C13.9935 8.89751 13.9935 11.1025 15.521 11.985L16.146 10.9017C15.9877 10.8102 15.8562 10.6788 15.7648 10.5204C15.6734 10.3621 15.6252 10.1824 15.6252 9.99959C15.6252 9.81675 15.6734 9.63713 15.7648 9.47878C15.8562 9.32044 15.9877 9.18894 16.146 9.09751L15.521 8.01501ZM14.4794 13.7892C12.9519 12.9067 11.0419 14.0092 11.0419 15.7733H12.2919C12.2919 15.5905 12.3401 15.411 12.4316 15.2527C12.523 15.0944 12.6545 14.9629 12.8129 14.8716C12.9712 14.7802 13.1508 14.7321 13.3336 14.7321C13.5165 14.7321 13.696 14.7803 13.8544 14.8717L14.4794 13.7892ZM8.95853 15.7733C8.95853 14.0092 7.04853 12.9067 5.52103 13.7892L6.14519 14.8717C6.30351 14.7803 6.48394 14.7321 6.66675 14.7321C6.84956 14.7321 7.02916 14.7802 7.1875 14.8716C7.34584 14.9629 7.47735 15.0944 7.5688 15.2527C7.66026 15.411 7.70845 15.5905 7.70853 15.7733H8.95853ZM4.47936 11.985C6.00686 11.1025 6.00686 8.89751 4.47936 8.01501L3.85436 9.09834C4.0127 9.18977 4.14419 9.32127 4.2356 9.47962C4.32702 9.63796 4.37515 9.81758 4.37515 10.0004C4.37515 10.1833 4.32702 10.3629 4.2356 10.5212C4.14419 10.6796 4.0127 10.8111 3.85436 10.9025L4.47936 11.985ZM7.70853 4.22668C7.70845 4.40949 7.66026 4.58906 7.5688 4.74735C7.47735 4.90565 7.34584 5.03708 7.1875 5.12845C7.02916 5.21983 6.84956 5.26792 6.66675 5.2679C6.48394 5.26788 6.30435 5.21975 6.14603 5.12834L5.52103 6.21168C7.04853 7.09334 8.95853 5.99084 8.95853 4.22668H7.70853Z" fill="#666666"/>
<path d="M13.8544 14.8717L13.4213 14.6218L14.2874 15.1217L13.8544 14.8717ZM4.47936 11.985L4.04635 12.235L4.91245 11.7351L4.47936 11.985ZM11.6669 3.72668H11.0419V4.72668H11.6669V3.72668ZM15.4004 11.1935L15.0879 11.7351L15.9541 12.2349L16.2666 11.6932L15.4004 11.1935ZM13.7338 14.0801L13.4213 14.6218L14.2875 15.1215L14.6 14.5799L13.7338 14.0801ZM3.73377 11.6932L4.04627 12.2349L4.91245 11.7351L4.59995 11.1935L3.73377 11.6932ZM5.40043 5.42015L5.08793 5.96182L5.95412 6.46154L6.26662 5.91987L5.40043 5.42015ZM3.21353 14.4955L4.29603 13.8705L3.79602 13.0045L2.71352 13.6295L3.21353 14.4955ZM4.91237 11.735L4.28737 10.6525L3.42135 11.1525L4.04635 12.235L4.91237 11.735ZM4.28745 9.34821L4.91245 8.26487L4.04627 7.76515L3.42127 8.84848L4.28745 9.34821ZM8.95853 15.2733H7.70853V16.2733H8.95853V15.2733ZM6.57835 14.6219L5.95418 13.5394L5.08787 14.0389L5.71204 15.1214L6.57835 14.6219ZM14.0464 13.5392L13.4214 14.6217L14.2874 15.1217L14.9124 14.0392L14.0464 13.5392ZM12.2919 15.2733H11.0419V16.2733H12.2919V15.2733ZM15.7129 10.6518L15.0879 11.7351L15.9541 12.2349L16.5791 11.1515L15.7129 10.6518ZM11.0419 4.72668H12.2919V3.72668H11.0419V4.72668ZM13.4213 5.3782L14.0463 6.46154L14.9125 5.96182L14.2875 4.87848L13.4213 5.3782ZM4.49936 4.90001L3.81942 5.63328L4.73891 6.4859L5.36555 5.39973L4.49936 4.90001ZM4.81186 4.35834L5.31172 3.49224L5.31155 3.49214L4.81186 4.35834ZM4.04103 4.47501L3.30739 3.79547L2.62822 4.52871L3.36109 5.20828L4.04103 4.47501ZM2.83353 7.78668L3.69938 8.28698L4.32627 7.20203L3.1293 6.83142L2.83353 7.78668ZM2.23603 7.60168L2.5318 6.64642L1.57578 6.35041L1.28053 7.30666L2.23603 7.60168ZM2.52103 8.32751L2.02153 9.19383L2.88705 9.69286L3.38688 8.82781L2.52103 8.32751ZM2.83186 12.2125L3.12801 13.1677L4.32354 12.797L3.69805 11.7128L2.83186 12.2125ZM2.51936 11.6708L3.38555 11.1711L2.88551 10.3044L2.01909 10.805L2.51936 11.6708ZM2.23519 12.3975L1.28025 12.6943L1.57685 13.6486L2.53134 13.3527L2.23519 12.3975ZM4.49853 15.0992L5.36471 14.5995L4.73808 13.5133L3.81859 14.3659L4.49853 15.0992ZM4.04019 15.5242L3.3058 16.2029L3.30655 16.2037L4.04019 15.5242ZM4.81103 15.6408L5.31072 16.507L6.17695 16.0073L5.67721 15.1411L4.81103 15.6408ZM8.33186 17.3117L9.30703 17.5331L9.58441 16.3117H8.33186V17.3117ZM7.70686 17.3117V16.3117H6.70686V17.3117H7.70686ZM8.19353 17.9208L7.97055 18.8957L8.9469 19.119L9.1687 18.1423L8.19353 17.9208ZM11.666 17.3133V16.3133H10.4122L10.6911 17.5358L11.666 17.3133ZM11.8052 17.9233L10.8302 18.1458L11.0527 19.121L12.0279 18.8982L11.8052 17.9233ZM12.291 17.3133L13.291 17.3122L13.2899 16.3133H12.291V17.3133ZM15.5002 15.1L16.1801 14.3667L15.2606 13.5141L14.634 14.6003L15.5002 15.1ZM15.1877 15.6417L14.6876 16.5076L14.688 16.5079L15.1877 15.6417ZM15.9585 15.525L16.6922 16.2045L17.3713 15.4713L16.6385 14.7917L15.9585 15.525ZM17.1652 12.2117L16.2993 11.7114L15.6724 12.7963L16.8694 13.1669L17.1652 12.2117ZM17.7627 12.3967L17.4669 13.3519L18.4229 13.6479L18.7182 12.6917L17.7627 12.3967ZM17.4777 11.6708L17.9772 10.8045L17.1117 10.3055L16.6118 11.1705L17.4777 11.6708ZM17.1669 7.78584L16.8707 6.8307L15.6752 7.20138L16.3007 8.28557L17.1669 7.78584ZM17.7635 7.60084L18.7185 7.30404L18.4219 6.34976L17.4674 6.6457L17.7635 7.60084ZM15.5002 4.89834L14.6343 5.39864L15.2606 6.48256L16.1794 5.63228L15.5002 4.89834ZM15.9585 4.47418L16.6927 3.79516L16.6922 3.79464L15.9585 4.47418ZM15.1877 4.35751L14.688 3.49131L13.8212 3.99135L14.3218 4.85781L15.1877 4.35751ZM11.6669 2.68751L10.692 2.46479L10.4126 3.68751H11.6669V2.68751ZM12.2919 2.68751H13.2919L13.2919 2.68728L12.2919 2.68751ZM8.33353 2.68584V3.68584H9.58736L9.30848 2.46342L8.33353 2.68584ZM8.19436 2.07584L9.16931 1.85342L8.94683 0.878228L7.97169 1.10095L8.19436 2.07584ZM7.70853 2.68584L6.70853 2.68695L6.70963 3.68584H7.70853V2.68584ZM15.521 11.985L15.0208 12.8509L15.0213 12.8512L15.521 11.985ZM13.8544 14.8717L14.3545 14.0057L14.3544 14.0057L13.8544 14.8717ZM4.47936 11.985L4.97922 12.8511L4.97961 12.8509L4.47936 11.985ZM5.52103 6.21168L4.65484 5.71195L4.15522 6.57796L5.02113 7.07776L5.52103 6.21168ZM3.43103 7.97168L3.13568 8.92707L4.09238 9.22282L4.38682 8.26572L3.43103 7.97168ZM4.95686 5.32418L5.69044 6.00378L6.36973 5.27053L5.6368 4.59091L4.95686 5.32418ZM4.04019 4.47418L4.72013 3.74091L3.98654 3.06067L3.30662 3.79456L4.04019 4.47418ZM2.23686 7.60251L1.28111 7.30832L0.987277 8.26291L1.94151 8.5579L2.23686 7.60251ZM4.04603 13.4375L4.91224 12.9378L4.91181 12.9371L4.04603 13.4375ZM3.42936 12.0292L4.3843 11.7324L4.08788 10.7787L3.13382 11.0738L3.42936 12.0292ZM2.23603 12.3983L1.94049 11.443L0.984514 11.7388L1.2809 12.6945L2.23603 12.3983ZM2.96353 14.0625L3.82976 13.5629L3.82958 13.5626L2.96353 14.0625ZM4.95769 14.6758L5.63658 15.4101L6.37065 14.7314L5.6921 13.9971L4.95769 14.6758ZM11.5277 16.705L12.5026 16.4824L12.2802 15.5082L11.3058 15.7299L11.5277 16.705ZM8.47269 16.7033L8.69568 15.7285L7.72059 15.5055L7.49781 16.4806L8.47269 16.7033ZM8.19436 17.9217L7.21948 17.699L6.99686 18.6734L7.9712 18.8965L8.19436 17.9217ZM11.806 17.9242L12.0278 18.8993L13.0037 18.6773L12.7809 17.7016L11.806 17.9242ZM16.5694 12.0283L16.8647 11.073L15.908 10.7772L15.6136 11.7343L16.5694 12.0283ZM15.0435 14.6758L14.3099 13.9962L13.6307 14.7295L14.3636 15.4091L15.0435 14.6758ZM15.9602 15.5258L15.2803 16.2591L16.0138 16.9394L16.6938 16.2055L15.9602 15.5258ZM17.7635 12.3975L18.7193 12.6917L19.0131 11.7371L18.0589 11.4421L17.7635 12.3975ZM15.9544 6.56251L15.4544 5.69649L14.5916 6.1946L15.0864 7.05922L15.9544 6.56251ZM16.571 7.97084L15.6159 8.26717L15.912 9.22147L16.8666 8.92617L16.571 7.97084ZM17.7644 7.60168L18.0599 8.55701L19.0159 8.26127L18.7195 7.30549L17.7644 7.60168ZM15.0419 5.32418L14.3619 4.59091L13.6293 5.2702L14.3079 6.00342L15.0419 5.32418ZM15.9535 6.56251L15.088 7.06342L15.5883 7.92773L16.4532 7.4287L15.9535 6.56251ZM8.47186 3.29501L7.49694 3.51758L7.71937 4.49185L8.69378 4.27008L8.47186 3.29501ZM11.5269 3.29668L11.3039 4.2715L12.2783 4.4944L12.5016 3.52003L11.5269 3.29668ZM8.19353 2.07584L7.97172 1.10075L6.99587 1.32274L7.21861 2.29842L8.19353 2.07584ZM8.95769 4.22668V5.22668H9.95769V4.22668H8.95769ZM8.95769 2.68501H9.95769V1.68501H8.95769V2.68501ZM7.70769 2.68501V1.68501H6.70769V2.68501H7.70769ZM7.70769 4.22668H6.70769V5.22668H7.70769V4.22668ZM6.14603 5.12834L6.64603 4.26232L6.64589 4.26224L6.14603 5.12834ZM4.18686 5.44084L3.32084 4.94083L2.82088 5.80676L3.68676 6.30681L4.18686 5.44084ZM5.52019 6.21084L5.0201 7.07681L5.88565 7.57667L6.38592 6.71135L5.52019 6.21084ZM3.85436 10.9025L4.35422 11.7686L4.3544 11.7685L3.85436 10.9025ZM2.52019 11.6725L2.02033 10.8064L1.15408 11.3064L1.65417 12.1725L2.52019 11.6725ZM3.14519 12.755L2.27917 13.255L2.7791 14.1209L3.64506 13.6211L3.14519 12.755ZM4.47936 8.01501L4.97961 7.14913L4.97905 7.14881L4.47936 8.01501ZM3.14603 7.24584L3.64572 6.37964L2.77955 5.87997L2.27984 6.74612L3.14603 7.24584ZM2.52103 8.32918L1.65484 7.82945L1.1551 8.69567L2.02134 9.19538L2.52103 8.32918ZM3.85436 9.09834L4.3544 8.23234L4.35405 8.23214L3.85436 9.09834ZM8.95853 17.3125V18.3125H9.95853V17.3125H8.95853ZM7.70853 15.7733H8.70853V15.7729L7.70853 15.7733ZM7.70853 17.3125H6.70853V18.3125H7.70853V17.3125ZM5.52103 13.7892L6.02089 14.6553L6.02128 14.6551L5.52103 13.7892ZM4.18686 14.5592L3.687 13.6931L2.82103 14.1929L3.32068 15.0589L4.18686 14.5592ZM4.81186 15.6425L3.94568 16.1422L4.44585 17.0092L5.31236 16.5082L4.81186 15.6425ZM6.14519 14.8717L5.64519 14.0057L5.64469 14.0059L6.14519 14.8717ZM15.8135 14.5592L16.6793 15.0597L17.1801 14.1933L16.3134 13.6931L15.8135 14.5592ZM14.4794 13.7892L13.9791 14.6551L13.9795 14.6553L14.4794 13.7892ZM12.2919 17.3142L12.2925 18.3142L13.2919 18.3135V17.3142H12.2919ZM12.2919 15.7733L11.2919 15.7729V15.7733H12.2919ZM11.0419 17.315H10.0419V18.3157L11.0425 18.315L11.0419 17.315ZM16.8552 7.24501L17.7215 6.7455L17.2218 5.87884L16.3553 6.37891L16.8552 7.24501ZM15.521 8.01501L15.0212 7.14891L15.0208 7.14913L15.521 8.01501ZM16.146 9.09834L15.2798 9.59807L15.78 10.465L16.6465 9.96408L16.146 9.09834ZM17.4785 11.6717L18.3448 12.1712L18.8439 11.3057L17.9789 10.8058L17.4785 11.6717ZM16.146 10.9017L16.6464 10.0358L16.6461 10.0357L16.146 10.9017ZM16.8544 12.7542L16.3547 13.6204L17.2211 14.1202L17.7207 13.2537L16.8544 12.7542ZM12.2919 4.22668H11.2919L11.2919 4.2271L12.2919 4.22668ZM11.0419 2.68751V1.68751H10.0419V2.68751H11.0419ZM15.1885 4.35834L16.0545 3.85833L15.5546 2.99246L14.6887 3.49224L15.1885 4.35834ZM13.8544 5.12834L13.3545 4.26224L13.3544 4.26232L13.8544 5.12834ZM14.4794 6.21168L14.9796 7.07756L14.9796 7.07755L14.4794 6.21168ZM15.8135 5.44084L16.3138 6.30671L17.1794 5.80659L16.6795 4.94083L15.8135 5.44084ZM16.146 9.09751L16.6461 9.96351L17.512 9.46349L17.012 8.5975L16.146 9.09751ZM4.37515 10.0004H5.37515H4.37515ZM7.70853 4.22668V3.22668H6.70895L6.70853 4.22625L7.70853 4.22668ZM8.95853 4.22668H9.95853V3.22668H8.95853V4.22668ZM5.36555 5.39973L5.67805 4.85807L3.94568 3.85862L3.63318 4.40029L5.36555 5.39973ZM5.31155 3.49214C4.99255 3.30812 4.6205 3.23791 4.25638 3.29302L4.55567 5.2705C4.47164 5.28322 4.38578 5.26701 4.31217 5.22455L5.31155 3.49214ZM4.25638 3.29302C3.89225 3.34813 3.55764 3.52529 3.30739 3.79547L4.77467 5.15455C4.71692 5.2169 4.6397 5.25778 4.55567 5.2705L4.25638 3.29302ZM3.36109 5.20828L3.81942 5.63328L5.1793 4.16674L4.72097 3.74174L3.36109 5.20828ZM3.1293 6.83142L2.5318 6.64642L1.94026 8.55694L2.53776 8.74194L3.1293 6.83142ZM1.28053 7.30666C1.17186 7.65864 1.186 8.03709 1.32063 8.37998L3.18227 7.649C3.21334 7.72813 3.2166 7.81547 3.19152 7.89669L1.28053 7.30666ZM1.32063 8.37998C1.45527 8.72286 1.70241 9.00983 2.02153 9.19383L3.02052 7.46119C3.09416 7.50365 3.1512 7.56988 3.18227 7.649L1.32063 8.37998ZM3.38688 8.82781L3.69938 8.28698L1.96768 7.28638L1.65518 7.82721L3.38688 8.82781ZM3.69805 11.7128L3.38555 11.1711L1.65318 12.1706L1.96568 12.7122L3.69805 11.7128ZM2.01909 10.805C1.69989 10.9894 1.45289 11.2769 1.31863 11.6202L3.18128 12.3486C3.15029 12.4278 3.09329 12.4942 3.01963 12.5367L2.01909 10.805ZM1.31863 11.6202C1.18438 11.9635 1.17084 12.3423 1.28025 12.6943L3.19013 12.1007C3.21538 12.1819 3.21226 12.2694 3.18128 12.3486L1.31863 11.6202ZM2.53134 13.3527L3.12801 13.1677L2.53571 11.2574L1.93905 11.4424L2.53134 13.3527ZM3.81859 14.3659L3.36025 14.7909L4.72013 16.2574L5.17847 15.8324L3.81859 14.3659ZM3.30655 16.2037C3.55681 16.4739 3.89141 16.6511 4.25554 16.7062L4.55484 14.7287C4.63887 14.7414 4.71609 14.7823 4.77384 14.8446L3.30655 16.2037ZM4.25554 16.7062C4.61968 16.7613 4.99172 16.6911 5.31072 16.507L4.31134 14.7746C4.38495 14.7322 4.4708 14.716 4.55484 14.7287L4.25554 16.7062ZM5.67721 15.1411L5.36471 14.5995L3.63234 15.5989L3.94484 16.1406L5.67721 15.1411ZM8.33186 16.3117H7.70686V18.3117H8.33186V16.3117ZM6.70686 17.3117C6.70686 18.0725 7.23451 18.7273 7.97055 18.8957L8.41651 16.946C8.58421 16.9844 8.70686 17.1341 8.70686 17.3117H6.70686ZM9.1687 18.1423L9.30703 17.5331L7.35669 17.0902L7.21836 17.6994L9.1687 18.1423ZM10.6911 17.5358L10.8302 18.1458L12.7801 17.7009L12.641 17.0909L10.6911 17.5358ZM12.0279 18.8982C12.387 18.8162 12.7076 18.6146 12.9371 18.3264L11.3727 17.0804C11.4257 17.0139 11.4996 16.9674 11.5825 16.9484L12.0279 18.8982ZM12.9371 18.3264C13.1667 18.0382 13.2914 17.6806 13.291 17.3122L11.291 17.3144C11.2909 17.2294 11.3197 17.1469 11.3727 17.0804L12.9371 18.3264ZM12.291 16.3133H11.666V18.3133H12.291V16.3133ZM14.634 14.6003L14.3215 15.142L16.0539 16.1414L16.3664 15.5997L14.634 14.6003ZM14.688 16.5079C15.007 16.6919 15.3791 16.7621 15.7432 16.707L15.4439 14.7295C15.5279 14.7168 15.6138 14.733 15.6874 14.7755L14.688 16.5079ZM15.7432 16.707C16.1073 16.6519 16.4419 16.4747 16.6922 16.2045L15.2249 14.8455C15.2826 14.7831 15.3599 14.7422 15.4439 14.7295L15.7432 16.707ZM16.6385 14.7917L16.1801 14.3667L14.8203 15.8333L15.2786 16.2583L16.6385 14.7917ZM16.8694 13.1669L17.4669 13.3519L18.0585 11.4414L17.461 11.2564L16.8694 13.1669ZM18.7182 12.6917C18.8269 12.3397 18.8127 11.9613 18.6781 11.6184L16.8165 12.3494C16.7854 12.2702 16.7821 12.1829 16.8072 12.1017L18.7182 12.6917ZM18.6781 11.6184C18.5435 11.2755 18.2963 10.9885 17.9772 10.8045L16.9782 12.5372C16.9046 12.4947 16.8475 12.4285 16.8165 12.3494L18.6781 11.6184ZM16.6118 11.1705L16.2993 11.7114L18.031 12.712L18.3435 12.1711L16.6118 11.1705ZM16.3007 8.28557L16.6132 8.82723L18.3455 7.82779L18.033 7.28612L16.3007 8.28557ZM17.9796 9.19338C18.2988 9.00896 18.5458 8.72149 18.6801 8.37816L16.8174 7.64977C16.8484 7.57054 16.9054 7.5042 16.9791 7.46164L17.9796 9.19338ZM18.6801 8.37816C18.8143 8.03484 18.8279 7.65607 18.7185 7.30404L16.8086 7.89764C16.7833 7.81641 16.7865 7.729 16.8174 7.64977L18.6801 8.37816ZM17.4674 6.6457L16.8707 6.8307L17.463 8.74099L18.0597 8.55599L17.4674 6.6457ZM16.1794 5.63228L16.6377 5.20811L15.2793 3.74024L14.821 4.16441L16.1794 5.63228ZM16.6922 3.79464C16.4419 3.52446 16.1073 3.3473 15.7432 3.29219L15.4439 5.26966C15.3599 5.25695 15.2826 5.21606 15.2249 5.15371L16.6922 3.79464ZM15.7432 3.29219C15.3791 3.23707 15.007 3.30728 14.688 3.49131L15.6874 5.22371C15.6138 5.26618 15.5279 5.28238 15.4439 5.26966L15.7432 3.29219ZM14.3218 4.85781L14.6343 5.39864L16.366 4.39804L16.0535 3.85721L14.3218 4.85781ZM11.6669 3.68751H12.2919V1.68751H11.6669V3.68751ZM13.2919 2.68728C13.2918 2.31926 13.1668 1.96216 12.9373 1.67443L11.3737 2.92147C11.3207 2.85508 11.2919 2.77267 11.2919 2.68774L13.2919 2.68728ZM12.9373 1.67443C12.7078 1.38671 12.3875 1.1854 12.0287 1.10345L11.5834 3.05324C11.5006 3.03433 11.4266 2.98787 11.3737 2.92147L12.9373 1.67443ZM10.8311 1.85563L10.692 2.46479L12.6417 2.91023L12.7809 2.30106L10.8311 1.85563ZM9.30848 2.46342L9.16931 1.85342L7.21941 2.29827L7.35858 2.90827L9.30848 2.46342ZM7.97169 1.10095C7.61255 1.18298 7.29193 1.38461 7.06242 1.67278L8.62686 2.91878C8.5739 2.98528 8.49991 3.03181 8.41703 3.05074L7.97169 1.10095ZM7.06242 1.67278C6.8329 1.96095 6.70812 2.31855 6.70853 2.68695L8.70853 2.68474C8.70862 2.76975 8.67982 2.85228 8.62686 2.91878L7.06242 1.67278ZM7.70853 3.68584H8.33353V1.68584H7.70853V3.68584ZM4.38682 8.26572C4.64595 7.42339 5.09153 6.65027 5.69044 6.00378L4.22328 4.64458C3.42018 5.51147 2.82271 6.54816 2.47523 7.67764L4.38682 8.26572ZM5.6368 4.59091L4.72013 3.74091L3.36025 5.20745L4.27692 6.05745L5.6368 4.59091ZM3.30662 3.79456C2.37619 4.79887 1.68389 5.99984 1.28111 7.30832L3.19261 7.8967C3.50702 6.87528 4.04744 5.93778 4.77376 5.15379L3.30662 3.79456ZM1.94151 8.5579L3.13568 8.92707L3.72638 7.01629L2.53221 6.64712L1.94151 8.5579ZM4.91181 12.9371C4.69175 12.5564 4.51482 12.1523 4.3843 11.7324L2.47442 12.326C2.64907 12.8879 2.8858 13.4285 3.18025 13.9379L4.91181 12.9371ZM3.13382 11.0738L1.94049 11.443L2.53157 13.3537L3.7249 12.9845L3.13382 11.0738ZM1.2809 12.6945C1.48279 13.3456 1.75668 13.9721 2.09748 14.5625L3.82958 13.5626C3.56313 13.101 3.349 12.6112 3.19116 12.1022L1.2809 12.6945ZM5.6921 13.9971C5.39358 13.6741 5.13201 13.3188 4.91224 12.9378L3.17981 13.9372C3.47388 14.447 3.82386 14.9224 4.22329 15.3546L5.6921 13.9971ZM2.09729 14.5621C2.43812 15.153 2.84356 15.7027 3.3058 16.2029L4.77459 14.8455C4.41254 14.4537 4.09574 14.024 3.82976 13.5629L2.09729 14.5621ZM4.71908 16.2584L5.63658 15.4101L4.27881 13.9416L3.36131 14.7899L4.71908 16.2584ZM11.3058 15.7299C10.4467 15.9255 9.55456 15.925 8.69568 15.7285L8.24971 17.6782C9.4014 17.9416 10.5976 17.9423 11.7496 17.6801L11.3058 15.7299ZM7.49781 16.4806L7.21948 17.699L9.16924 18.1444L9.44758 16.9261L7.49781 16.4806ZM7.9712 18.8965C9.30604 19.202 10.6926 19.203 12.0278 18.8993L11.5842 16.9491C10.5419 17.1862 9.45953 17.1854 8.41752 16.9469L7.9712 18.8965ZM12.7809 17.7016L12.5026 16.4824L10.5528 16.9276L10.8311 18.1467L12.7809 17.7016ZM15.6136 11.7343C15.3544 12.5766 14.9089 13.3497 14.3099 13.9962L15.7771 15.3554C16.5802 14.4886 17.1777 13.4519 17.5252 12.3224L15.6136 11.7343ZM14.3636 15.4091L15.2803 16.2591L16.6401 14.7926L15.7235 13.9426L14.3636 15.4091ZM16.6938 16.2055C17.6242 15.2012 18.3165 14.0002 18.7193 12.6917L16.8078 12.1033C16.4934 13.1247 15.9529 14.0622 15.2266 14.8462L16.6938 16.2055ZM18.0589 11.4421L16.8647 11.073L16.274 12.9837L17.4682 13.3529L18.0589 11.4421ZM15.0864 7.05922C15.3134 7.45585 15.4891 7.85832 15.6159 8.26717L17.5261 7.67451C17.3541 7.12003 17.1186 6.58361 16.8223 6.0658L15.0864 7.05922ZM16.8666 8.92617L18.0599 8.55701L17.4688 6.64635L16.2755 7.01551L16.8666 8.92617ZM18.7195 7.30549C18.5176 6.65442 18.2437 6.0279 17.9029 5.43755L16.1708 6.43747C16.4373 6.89901 16.6514 7.38884 16.8092 7.89786L18.7195 7.30549ZM16.5369 5.07149L15.4544 5.69649L16.4544 7.42853L17.5369 6.80353L16.5369 5.07149ZM14.3079 6.00342C14.5989 6.31782 14.8616 6.6721 15.088 7.06342L16.819 6.0616C16.5188 5.54292 16.1681 5.06887 15.7758 4.64493L14.3079 6.00342ZM16.4532 7.4287L17.5366 6.8037L16.5371 5.07132L15.4538 5.69632L16.4532 7.4287ZM17.9029 5.43758C17.562 4.84694 17.1555 4.29553 16.6927 3.79516L15.2244 5.15319C15.5865 5.54465 15.9044 5.97597 16.1708 6.43744L17.9029 5.43758ZM15.2786 3.74091L14.3619 4.59091L15.7218 6.05745L16.6385 5.20745L15.2786 3.74091ZM8.69378 4.27008C9.55288 4.07455 10.445 4.07504 11.3039 4.2715L11.7498 2.32185C10.5982 2.05841 9.40192 2.05776 8.24994 2.31995L8.69378 4.27008ZM12.5016 3.52003L12.7808 2.30169L10.8313 1.85499L10.5521 3.07333L12.5016 3.52003ZM12.0292 1.10356C10.6943 0.797973 9.30698 0.797014 7.97172 1.10075L8.41534 3.05093C9.45767 2.81383 10.5409 2.81458 11.5829 3.05313L12.0292 1.10356ZM7.21861 2.29842L7.49694 3.51758L9.44678 3.07244L9.16844 1.85327L7.21861 2.29842ZM9.95769 4.22668V2.68501H7.95769V4.22668H9.95769ZM8.95769 1.68501H7.70769V3.68501H8.95769V1.68501ZM6.70769 2.68501V4.22668H8.70769V2.68501H6.70769ZM7.70769 5.22668H8.95769V3.22668H7.70769V5.22668ZM6.64589 4.26224L5.31172 3.49224L4.312 5.22445L5.64616 5.99445L6.64589 4.26224ZM3.94584 3.85833L3.32084 4.94083L5.05288 5.94085L5.67788 4.85835L3.94584 3.85833ZM3.68676 6.30681L5.0201 7.07681L6.02029 5.34487L4.68696 4.57487L3.68676 6.30681ZM6.38592 6.71135L7.01176 5.62885L5.2803 4.62783L4.65446 5.71033L6.38592 6.71135ZM3.3545 10.0364L2.02033 10.8064L3.02006 12.5386L4.35422 11.7686L3.3545 10.0364ZM1.65417 12.1725L2.27917 13.255L4.01121 12.255L3.38621 11.1725L1.65417 12.1725ZM3.64506 13.6211L4.97922 12.8511L3.9795 11.1189L2.64533 11.8889L3.64506 13.6211ZM4.97905 7.14881L3.64572 6.37964L2.64634 8.11205L3.97967 8.88121L4.97905 7.14881ZM2.27984 6.74612L1.65484 7.82945L3.38721 8.8289L4.01221 7.74557L2.27984 6.74612ZM2.02134 9.19538L3.35467 9.96455L4.35405 8.23214L3.02072 7.46297L2.02134 9.19538ZM9.95853 17.3125V15.7733H7.95853V17.3125H9.95853ZM6.70853 15.7733V17.3125H8.70853V15.7733H6.70853ZM7.70853 18.3125H8.95853V16.3125H7.70853V18.3125ZM5.02116 12.9231L3.687 13.6931L4.68672 15.4253L6.02089 14.6553L5.02116 12.9231ZM3.32068 15.0589L3.94568 16.1422L5.67805 15.1428L5.05305 14.0595L3.32068 15.0589ZM5.31236 16.5082L6.6457 15.7374L5.64469 14.0059L4.31136 14.7768L5.31236 16.5082ZM16.3134 13.6931L14.9792 12.9231L13.9795 14.6553L15.3137 15.4253L16.3134 13.6931ZM13.3543 15.7376L14.6876 16.5076L15.6878 14.7757L14.3545 14.0057L13.3543 15.7376ZM16.0534 16.1422L16.6793 15.0597L14.9478 14.0587L14.322 15.1412L16.0534 16.1422ZM13.2919 17.3142V15.7733H11.2919V17.3142H13.2919ZM10.0419 15.7733V17.315H12.0419V15.7733H10.0419ZM11.0425 18.315L12.2925 18.3142L12.2912 16.3142L11.0412 16.315L11.0425 18.315ZM16.3553 6.37891L15.0212 7.14891L16.0209 8.88111L17.3551 8.11111L16.3553 6.37891ZM14.6548 8.51473L15.2798 9.59807L17.0122 8.59862L16.3872 7.51529L14.6548 8.51473ZM16.6465 9.96408L17.9799 9.19324L16.9789 7.46178L15.6455 8.23261L16.6465 9.96408ZM18.3457 7.828L17.7215 6.7455L15.9889 7.74452L16.6131 8.82702L18.3457 7.828ZM17.9789 10.8058L16.6464 10.0358L15.6457 11.7675L16.9782 12.5375L17.9789 10.8058ZM15.0213 12.8512L16.3547 13.6204L17.3541 11.888L16.0207 11.1188L15.0213 12.8512ZM17.7207 13.2537L18.3448 12.1712L16.6122 11.1722L15.9881 12.2547L17.7207 13.2537ZM13.2919 4.22668V2.68751H11.2919V4.22668H13.2919ZM12.2919 1.68751H11.0419V3.68751H12.2919V1.68751ZM10.0419 2.68751V4.22668H12.0419V2.68751H10.0419ZM14.6887 3.49224L13.3545 4.26224L14.3542 5.99445L15.6884 5.22445L14.6887 3.49224ZM14.9796 7.07755L16.3138 6.30671L15.3133 4.57497L13.9791 5.34581L14.9796 7.07755ZM16.6795 4.94083L16.0545 3.85833L14.3225 4.85835L14.9475 5.94085L16.6795 4.94083ZM10.0419 4.22668C10.0419 6.76003 12.7848 8.34559 14.9796 7.07756L13.9791 5.3458C13.1189 5.84276 12.0419 5.22166 12.0419 4.22668H10.0419ZM13.3544 4.26232C13.348 4.26597 13.3408 4.2679 13.3335 4.2679L13.3337 6.2679C13.6921 6.26786 14.0441 6.17353 14.3544 5.99437L13.3544 4.26232ZM13.3335 4.2679C13.3262 4.2679 13.319 4.26598 13.3127 4.26232L12.3131 5.99459C12.6234 6.17368 12.9754 6.26794 13.3337 6.2679L13.3335 4.2679ZM13.3127 4.26232C13.3064 4.25867 13.3011 4.25341 13.2975 4.24708L11.5657 5.24763C11.745 5.55788 12.0027 5.8155 12.3131 5.99459L13.3127 4.26232ZM13.2975 4.24708C13.2938 4.24075 13.2919 4.23356 13.2919 4.22625L11.2919 4.2271C11.292 4.58542 11.3865 4.93738 11.5657 5.24763L13.2975 4.24708ZM15.0208 7.14913C12.8269 8.4166 12.8269 11.5834 15.0208 12.8509L16.0213 11.1191C15.1601 10.6216 15.1601 9.37842 16.0213 8.88089L15.0208 7.14913ZM16.6461 10.0357C16.6397 10.032 16.6345 10.0268 16.6308 10.0204L14.8987 11.0204C15.0779 11.3307 15.3356 11.5885 15.646 11.7677L16.6461 10.0357ZM16.6308 10.0204C16.6272 10.0141 16.6252 10.0069 16.6252 9.99959H14.6252C14.6252 10.358 14.7196 10.71 14.8987 11.0204L16.6308 10.0204ZM16.6252 9.99959C16.6252 9.99228 16.6272 9.98509 16.6308 9.97876L14.8987 8.97881C14.7196 9.28917 14.6252 9.64123 14.6252 9.99959H16.6252ZM16.6308 9.97876C16.6345 9.97243 16.6397 9.96717 16.6461 9.96351L15.646 8.23151C15.3356 8.41071 15.0779 8.66844 14.8987 8.97881L16.6308 9.97876ZM17.012 8.5975L16.387 7.515L14.655 8.51502L15.28 9.59752L17.012 8.5975ZM14.9796 12.9233C12.7853 11.6556 10.0419 13.2394 10.0419 15.7733H12.0419C12.0419 14.779 13.1184 14.1578 13.9791 14.6551L14.9796 12.9233ZM13.2919 15.7738C13.2919 15.7665 13.2938 15.7593 13.2975 15.7529L11.5657 14.7524C11.3865 15.0626 11.292 15.4146 11.2919 15.7729L13.2919 15.7738ZM13.2975 15.7529C13.3011 15.7466 13.3064 15.7414 13.3127 15.7377L12.3131 14.0054C12.0027 14.1845 11.745 14.4421 11.5657 14.7524L13.2975 15.7529ZM13.3127 15.7377C13.319 15.734 13.3262 15.7321 13.3335 15.7321L13.3337 13.7321C12.9754 13.7321 12.6234 13.8263 12.3131 14.0054L13.3127 15.7377ZM13.3335 15.7321C13.3408 15.7321 13.348 15.734 13.3544 15.7377L14.3544 14.0057C14.0441 13.8265 13.6921 13.7322 13.3337 13.7321L13.3335 15.7321ZM9.95853 15.7733C9.95853 13.2394 7.21505 11.6556 5.02077 12.9233L6.02128 14.6551C6.88201 14.1578 7.95853 14.779 7.95853 15.7733H9.95853ZM6.64519 15.7377C6.65082 15.7345 6.65873 15.7321 6.66686 15.7321L6.66664 13.7321C6.30915 13.7322 5.95621 13.8261 5.64519 14.0057L6.64519 15.7377ZM6.66686 15.7321C6.67417 15.7321 6.68135 15.734 6.68769 15.7377L7.68732 14.0054C7.37697 13.8263 7.02496 13.7321 6.66664 13.7321L6.66686 15.7321ZM6.68769 15.7377C6.69402 15.7414 6.69928 15.7466 6.70294 15.7529L8.43467 14.7524C8.25541 14.4421 7.99766 14.1845 7.68732 14.0054L6.68769 15.7377ZM6.70294 15.7529C6.7066 15.7593 6.70852 15.7665 6.70853 15.7738L8.70853 15.7729C8.70837 15.4146 8.61393 15.0626 8.43467 14.7524L6.70294 15.7529ZM4.97961 12.8509C7.17344 11.5834 7.17344 8.4166 4.97961 7.14913L3.97911 8.88089C4.84028 9.37842 4.84028 10.6216 3.97911 11.1191L4.97961 12.8509ZM3.35432 9.96434C3.36065 9.968 3.36591 9.97326 3.36957 9.97959L5.10164 8.97964C4.92247 8.66928 4.66475 8.41154 4.3544 8.23234L3.35432 9.96434ZM3.36957 9.97959C3.37322 9.98593 3.37515 9.99311 3.37515 10.0004H5.37515C5.37515 9.64206 5.28082 9.29 5.10164 8.97964L3.36957 9.97959ZM3.37515 10.0004C3.37515 10.0077 3.37322 10.0149 3.36957 10.0213L5.10164 11.0212C5.28082 10.7109 5.37515 10.3588 5.37515 10.0004H3.37515ZM3.36957 10.0213C3.36591 10.0276 3.36065 10.0329 3.35432 10.0365L4.3544 11.7685C4.66475 11.5893 4.92247 11.3316 5.10164 11.0212L3.36957 10.0213ZM6.70853 4.22625C6.70852 4.23356 6.7066 4.24075 6.70294 4.24708L8.43467 5.24763C8.61393 4.93738 8.70837 4.58542 8.70853 4.2271L6.70853 4.22625ZM6.70294 4.24708C6.69928 4.25341 6.69402 4.25867 6.68769 4.26232L7.68732 5.99459C7.99767 5.8155 8.25541 5.55788 8.43467 5.24763L6.70294 4.24708ZM6.68769 4.26232C6.68135 4.26598 6.67417 4.2679 6.66686 4.2679L6.66664 6.2679C7.02496 6.26794 7.37697 6.17368 7.68732 5.99459L6.68769 4.26232ZM6.66686 4.2679C6.65954 4.2679 6.65236 4.26597 6.64603 4.26232L5.64603 5.99437C5.95634 6.17353 6.30833 6.26786 6.66664 6.2679L6.66686 4.2679ZM5.27984 4.62862L4.65484 5.71195L6.38721 6.7114L7.01221 5.62807L5.27984 4.62862ZM5.02113 7.07776C7.2152 8.34417 9.95853 6.7607 9.95853 4.22668H7.95853C7.95853 5.22098 6.88186 5.84252 6.02093 5.34559L5.02113 7.07776ZM8.95853 3.22668H7.70853V5.22668H8.95853V3.22668Z" fill="black" mask="url(#path-2-inside-1_388_4097)"/>
</svg>
