<svg width="20" height="20" viewBox="0 0 20 20" fill="none" xmlns="http://www.w3.org/2000/svg">
<path d="M18.0445 10.1973C17.9663 10.0113 17.7824 9.8914 17.5886 9.82655L10.2769 6.91718C10.0967 6.86098 9.9036 6.86098 9.72338 6.91718L2.41869 9.82812C2.22338 9.88905 2.03471 10.0144 1.95736 10.2004C1.88002 10.3863 1.84252 10.5664 1.9183 10.7894L3.73588 15.4437C3.75905 15.501 3.79979 15.5494 3.85223 15.5819C3.90468 15.6145 3.96611 15.6296 4.02768 15.625C5.07025 15.5594 5.99291 15.0301 6.69877 14.3555C6.75425 14.3033 6.82752 14.2743 6.90365 14.2743C6.97978 14.2743 7.05305 14.3033 7.10853 14.3555C7.86322 15.0781 8.86752 15.625 10.0003 15.625C11.1331 15.625 12.1316 15.0781 12.8863 14.3539C12.9418 14.3017 13.0152 14.2727 13.0913 14.2727C13.1675 14.2727 13.2409 14.3017 13.2964 14.3539C14.0023 15.0289 14.9249 15.5594 15.9675 15.625C16.0289 15.6296 16.0902 15.6147 16.1425 15.5824C16.1949 15.55 16.2356 15.5019 16.2589 15.4449L18.0831 10.7902C18.1605 10.6035 18.1218 10.3836 18.0445 10.1973Z" stroke="white" stroke-width="1.5" stroke-miterlimit="10"/>
<path d="M16.2352 18.4942L16.2352 18.482C16.2352 18.4369 16.223 18.3926 16.2 18.3538C16.1769 18.3149 16.1439 18.283 16.1043 18.2614L16.1118 18.2477M16.2352 18.4942L13.4405 17.7597C13.383 17.7592 13.3263 17.7726 13.275 17.7986L13.275 17.7986C12.2613 18.314 11.1402 18.5826 10.0031 18.5825C8.8659 18.5824 7.74485 18.3135 6.73134 17.7978L6.73133 17.7978C6.68061 17.772 6.62447 17.7588 6.5676 17.7593C6.51073 17.7597 6.45479 17.7737 6.40447 17.8002L6.40445 17.8002C5.6547 18.1966 4.86931 18.5667 4.05725 18.7296C4.02003 18.7364 3.98174 18.7345 3.94534 18.7242C3.90889 18.7138 3.87532 18.6952 3.8472 18.6699C3.81908 18.6445 3.79717 18.613 3.78316 18.5778C3.76916 18.5426 3.76342 18.5047 3.76638 18.4669C3.77045 18.4225 3.78574 18.3798 3.81081 18.3429C3.8359 18.3059 3.86998 18.2759 3.90983 18.2557L3.90983 18.2557L3.91009 18.2556C4.97612 17.6901 5.93134 16.8287 6.35274 16.3873L6.35282 16.3873C6.41349 16.3228 6.49483 16.2817 6.58269 16.271C6.67056 16.2603 6.75939 16.2807 6.83375 16.3287L6.83377 16.3288C8.80533 17.5973 11.2057 17.5965 13.1769 16.3268L13.1769 16.3268C13.2506 16.2793 13.3385 16.2589 13.4256 16.2693C13.5127 16.2796 13.5934 16.32 13.654 16.3834L13.6541 16.3835C14.0789 16.8209 15.0446 17.692 16.1044 18.2614L16.1118 18.2477M16.2352 18.4942L16.2367 18.4946M16.2352 18.4942L13.6653 16.3727C14.0895 16.8094 15.0539 17.6793 16.1118 18.2477M16.1118 18.2477C16.1538 18.2706 16.1889 18.3045 16.2134 18.3458C16.2379 18.387 16.2508 18.4341 16.2508 18.482L16.2524 18.4824M16.2524 18.4824L16.2507 18.4824L16.2368 18.4827C16.2368 18.4866 16.2368 18.4906 16.2367 18.4946M16.2524 18.4824C16.253 18.5213 16.2449 18.5598 16.2288 18.5952C16.2127 18.6306 16.1889 18.662 16.1592 18.6871C16.1295 18.7121 16.0946 18.7303 16.057 18.7403C16.0194 18.7502 15.9801 18.7517 15.9418 18.7445L16.2524 18.4824ZM16.2367 18.4946C16.2356 18.5271 16.2281 18.5591 16.2146 18.5887C16.1994 18.622 16.1771 18.6515 16.1491 18.6751C16.1212 18.6987 16.0884 18.7158 16.053 18.7251C16.0177 18.7345 15.9807 18.7359 15.9448 18.7292M16.2367 18.4946L15.9448 18.7292M15.9448 18.7292C15.1355 18.5652 14.3513 18.1916 13.6054 17.801L15.9448 18.7292Z" fill="white" stroke="white" stroke-width="0.03125"/>
<path d="M12.5 3.75V2.8125C12.4993 2.56408 12.4003 2.32604 12.2246 2.15038C12.049 1.97473 11.8109 1.87572 11.5625 1.875H8.4375C8.18908 1.87572 7.95104 1.97473 7.77538 2.15038C7.59972 2.32604 7.50072 2.56408 7.5 2.8125V3.75M16.25 9.10156V5.625C16.2486 5.12816 16.0506 4.65209 15.6992 4.30077C15.3479 3.94945 14.8718 3.75144 14.375 3.75H5.625C5.12816 3.75144 4.65209 3.94945 4.30077 4.30077C3.94945 4.65209 3.75144 5.12816 3.75 5.625V9.21875M10 7.17188V15.4863" stroke="white" stroke-width="1.5" stroke-linecap="round" stroke-linejoin="round"/>
</svg>
